<?xml version="1.0" encoding="utf-8"?>
<!-- Generator: Adobe Illustrator 27.5.0, SVG Export Plug-In . SVG Version: 6.00 Build 0)  -->
<svg version="1.1" xmlns="http://www.w3.org/2000/svg" xmlns:xlink="http://www.w3.org/1999/xlink" x="0px" y="0px"
	 viewBox="0 0 500 500" style="enable-background:new 0 0 500 500;" xml:space="preserve">
<g id="BACKGROUND">
	<rect style="fill:#290A2B;" width="500" height="500"/>
</g>
<g id="OBJECTS">
	<g>
		<defs>
			<rect id="SVGID_1_" width="500" height="500"/>
		</defs>
		<clipPath id="SVGID_00000150079557330411389800000017250078452484300948_">
			<use xlink:href="#SVGID_1_"  style="overflow:visible;"/>
		</clipPath>
		
			<rect x="77.155" y="118.766" style="clip-path:url(#SVGID_00000150079557330411389800000017250078452484300948_);fill:none;stroke:#442448;stroke-width:4.6779;stroke-miterlimit:10;" width="56.398" height="209.803"/>
		
			<rect x="152.573" y="85.914" style="clip-path:url(#SVGID_00000150079557330411389800000017250078452484300948_);fill:none;stroke:#442448;stroke-width:4.6779;stroke-miterlimit:10;" width="36.238" height="209.803"/>
		
			<rect x="358.75" y="118.766" transform="matrix(-1 -1.224647e-16 1.224647e-16 -1 773.8985 447.3353)" style="clip-path:url(#SVGID_00000150079557330411389800000017250078452484300948_);fill:none;stroke:#442448;stroke-width:4.6779;stroke-miterlimit:10;" width="56.398" height="209.803"/>
		
			<rect x="303.493" y="85.914" transform="matrix(-1 -1.224647e-16 1.224647e-16 -1 643.2241 381.6303)" style="clip-path:url(#SVGID_00000150079557330411389800000017250078452484300948_);fill:none;stroke:#442448;stroke-width:4.6779;stroke-miterlimit:10;" width="36.238" height="209.803"/>
		
			<polygon style="clip-path:url(#SVGID_00000150079557330411389800000017250078452484300948_);fill:none;stroke:#442448;stroke-width:4.6779;stroke-miterlimit:10;" points="
			105.355,255.942 55.226,243.94 55.226,190.815 22.86,190.815 22.86,328.964 55.226,328.964 55.226,328.569 105.355,328.569 		"/>
		
			<polygon style="clip-path:url(#SVGID_00000150079557330411389800000017250078452484300948_);fill:none;stroke:#442448;stroke-width:4.6779;stroke-miterlimit:10;" points="
			386.949,255.942 437.077,243.94 437.077,190.815 469.444,190.815 469.444,328.964 437.077,328.964 437.077,328.569 
			386.949,328.569 		"/>
		<g style="clip-path:url(#SVGID_00000150079557330411389800000017250078452484300948_);">
			<defs>
				<rect id="SVGID_00000067928255630480184680000011890602281383412613_" width="500" height="500"/>
			</defs>
			<clipPath id="SVGID_00000132059980904974784310000008610113202369532313_">
				<use xlink:href="#SVGID_00000067928255630480184680000011890602281383412613_"  style="overflow:visible;"/>
			</clipPath>
			<path style="clip-path:url(#SVGID_00000132059980904974784310000008610113202369532313_);fill:#3D326E;" d="M253.247,312.774
				c-94.305,0-182.401,5.81-257.247,15.877V507h511V328.182C432.913,318.402,346.086,312.774,253.247,312.774z"/>
			<g style="clip-path:url(#SVGID_00000132059980904974784310000008610113202369532313_);">
				<path style="fill:#00EDE8;" d="M71,418.167c0,2.669-7.611,4.833-17,4.833c-9.389,0-17-2.164-17-4.833
					c0-2.669,7.611-4.833,17-4.833C63.389,413.333,71,415.497,71,418.167z"/>
				<rect x="37" y="61.167" style="opacity:0.52;fill:#00EDE8;" width="34" height="357"/>
			</g>
			<g style="clip-path:url(#SVGID_00000132059980904974784310000008610113202369532313_);">
				<ellipse style="fill:#00EDE8;" cx="133" cy="323.495" rx="10" ry="2.843"/>
				<rect x="123" y="113.5" style="opacity:0.52;fill:#00EDE8;" width="19.999" height="209.995"/>
			</g>
			<g style="clip-path:url(#SVGID_00000132059980904974784310000008610113202369532313_);">
				<ellipse style="fill:#00EDE8;" cx="357.318" cy="323.495" rx="10" ry="2.843"/>
				<rect x="347.318" y="113.5" style="opacity:0.52;fill:#00EDE8;" width="20" height="209.995"/>
			</g>
			<g style="clip-path:url(#SVGID_00000132059980904974784310000008610113202369532313_);">
				<path style="fill:#00EDE8;" d="M460,418.167c0,2.669-7.611,4.833-17,4.833c-9.389,0-17-2.164-17-4.833
					c0-2.669,7.611-4.833,17-4.833C452.389,413.333,460,415.497,460,418.167z"/>
				<rect x="426" y="61.167" style="opacity:0.52;fill:#00EDE8;" width="34" height="357"/>
			</g>
		</g>
		
			<ellipse style="clip-path:url(#SVGID_00000150079557330411389800000017250078452484300948_);fill:#00EDE8;" cx="253.247" cy="360.449" rx="167.496" ry="36.644"/>
		<path style="clip-path:url(#SVGID_00000150079557330411389800000017250078452484300948_);fill:#290A2B;" d="M102.76,376.552
			c27.247,12.164,84.392,20.541,150.488,20.541c66.095,0,123.24-8.377,150.488-20.541c-27.247-12.164-84.392-20.541-150.488-20.541
			C187.152,356.011,130.007,364.388,102.76,376.552z"/>
		<g style="clip-path:url(#SVGID_00000150079557330411389800000017250078452484300948_);">
			<defs>
				<ellipse id="SVGID_00000156557126174596797900000012420461870419240120_" cx="253.247" cy="360.449" rx="167.496" ry="36.644"/>
			</defs>
			<clipPath id="SVGID_00000026132122846765092350000013589624197338814393_">
				<use xlink:href="#SVGID_00000156557126174596797900000012420461870419240120_"  style="overflow:visible;"/>
			</clipPath>
			<g style="clip-path:url(#SVGID_00000026132122846765092350000013589624197338814393_);">
				<g>
					<path style="fill:#E9BC19;" d="M209.856,423.183c-1.263,0-2.287-1.024-2.287-2.287v-22.949c0-11.375,9.254-20.63,20.629-20.63
						h40.18c11.375,0,20.63,9.255,20.63,20.63v22.949c0,1.263-1.024,2.287-2.287,2.287H209.856z"/>
					<path style="fill:#270328;" d="M268.379,379.604c10.13,0,18.343,8.212,18.343,18.343v22.948h-76.865v-22.948
						c0-10.13,8.212-18.343,18.343-18.343H268.379 M268.379,375.03h-40.18c-12.636,0-22.916,10.28-22.916,22.916v22.948
						c0,2.526,2.048,4.573,4.573,4.573h76.865c2.526,0,4.573-2.048,4.573-4.573v-22.948
						C291.295,385.311,281.015,375.03,268.379,375.03L268.379,375.03z"/>
				</g>
			</g>
			<g style="clip-path:url(#SVGID_00000026132122846765092350000013589624197338814393_);">
				<defs>
					<path id="SVGID_00000070802433001896833790000011334248524047715501_" d="M286.721,420.895h-76.865v-22.948
						c0-10.13,8.212-18.343,18.343-18.343h40.18c10.13,0,18.343,8.212,18.343,18.343V420.895z"/>
				</defs>
				<clipPath id="SVGID_00000052782455865911818620000011993025366286153918_">
					<use xlink:href="#SVGID_00000070802433001896833790000011334248524047715501_"  style="overflow:visible;"/>
				</clipPath>
				<path style="clip-path:url(#SVGID_00000052782455865911818620000011993025366286153918_);fill:#00EDE8;" d="M261.283,378
					c0,0,11.676,0.667,11.676,21.667h21.854v-17l-9.83-9.83l-5.233,5.233L261.283,378z"/>
				<path style="clip-path:url(#SVGID_00000052782455865911818620000011993025366286153918_);fill:#00EDE8;" d="M234.936,378
					c0,0-11.676,0.667-11.676,21.667h-21.854v-17l9.83-9.83l5.233,5.233L234.936,378z"/>
			</g>
			<g style="clip-path:url(#SVGID_00000026132122846765092350000013589624197338814393_);">
				<path style="fill:#E9BC19;" d="M225.102,383.161c-1.263,0-2.287-1.024-2.287-2.287v-1.865c0-7.238,5.888-13.127,13.126-13.127
					h24.695c7.237,0,13.126,5.889,13.126,13.127v1.865c0,1.263-1.024,2.287-2.287,2.287H225.102z"/>
				<path style="fill:#270328;" d="M260.637,368.169c5.986,0,10.839,4.853,10.839,10.839v1.866h-46.373v-1.866
					c0-5.986,4.853-10.839,10.839-10.839H260.637 M260.637,363.596h-24.695c-8.498,0-15.412,6.914-15.412,15.412v1.866
					c0,2.526,2.048,4.573,4.573,4.573h46.373c2.526,0,4.573-2.048,4.573-4.573v-1.866
					C276.049,370.51,269.135,363.596,260.637,363.596L260.637,363.596z"/>
			</g>
		</g>
		<g style="clip-path:url(#SVGID_00000150079557330411389800000017250078452484300948_);">
			<text transform="matrix(1 0 0 1 194.196 436.5518)" style="fill:#FFFFFF; font-family:'Montserrat-Black'; font-size:25.337px;">RETURN</text>
			
				<text transform="matrix(1 0 0 1 163.1094 453.46)" style="fill:#FFFFFF; font-family:'Montserrat-Regular'; font-size:14.5938px; letter-spacing:1;">TO THE HOME PAGE</text>
		</g>
		<g style="clip-path:url(#SVGID_00000150079557330411389800000017250078452484300948_);">
			<path style="fill:#00EDE8;" d="M400,258.015L400,258.015c-3.577,0-6.504-2.927-6.504-6.504V206.18
				c0-3.577,2.927-6.504,6.504-6.504l0,0c3.577,0,6.503,2.927,6.503,6.504v45.331C406.503,255.088,403.577,258.015,400,258.015z"/>
			<path style="fill:#00EDE8;" d="M104.896,358.043L104.896,358.043c-3.577,0-6.503-2.927-6.503-6.503v-45.331
				c0-3.577,2.927-6.503,6.503-6.503l0,0c3.577,0,6.504,2.927,6.504,6.503v45.331C111.4,355.117,108.473,358.043,104.896,358.043z"
				/>
			<path style="fill:#00EDE8;" d="M378.416,316.661L378.416,316.661c-3.577,0-6.504-2.927-6.504-6.504v-45.331
				c0-3.577,2.927-6.503,6.504-6.503l0,0c3.577,0,6.503,2.927,6.503,6.503v45.331C384.919,313.734,381.993,316.661,378.416,316.661z
				"/>
			<path style="fill:#00EDE8;" d="M100.151,276.777L100.151,276.777c-1.788,0-3.252-1.463-3.252-3.252v-22.665
				c0-1.788,1.463-3.252,3.252-3.252l0,0c1.788,0,3.252,1.463,3.252,3.252v22.665C103.403,275.314,101.94,276.777,100.151,276.777z"
				/>
			<path style="fill:#00EDE8;" d="M94.577,167.287L94.577,167.287c-0.894,0-1.626-0.732-1.626-1.626v-11.333
				c0-0.894,0.732-1.626,1.626-1.626l0,0c0.894,0,1.626,0.732,1.626,1.626v11.333C96.203,166.555,95.471,167.287,94.577,167.287z"/>
			<path style="fill:#00EDE8;" d="M400.483,186.074L400.483,186.074c-0.894,0-1.626-0.732-1.626-1.626v-11.333
				c0-0.894,0.732-1.626,1.626-1.626l0,0c0.894,0,1.626,0.732,1.626,1.626v11.333C402.109,185.342,401.377,186.074,400.483,186.074z
				"/>
			<path style="fill:#00EDE8;" d="M405.612,358.801L405.612,358.801c-2.821,0-5.129-2.308-5.129-5.129v-35.751
				c0-2.821,2.308-5.129,5.129-5.129l0,0c2.821,0,5.129,2.308,5.129,5.129v35.751C410.741,356.493,408.433,358.801,405.612,358.801z
				"/>
			<path style="fill:#00EDE8;" d="M183.573,207.951L183.573,207.951c-1.788,0-3.252-1.463-3.252-3.252v-22.665
				c0-1.788,1.463-3.252,3.252-3.252l0,0c1.788,0,3.252,1.463,3.252,3.252v22.665C186.825,206.487,185.362,207.951,183.573,207.951z
				"/>
			<path style="fill:#00EDE8;" d="M121.424,226.391L121.424,226.391c-3.577,0-6.504-2.927-6.504-6.503v-45.331
				c0-3.577,2.926-6.503,6.504-6.503l0,0c3.577,0,6.504,2.927,6.504,6.503v45.331C127.928,223.465,125.001,226.391,121.424,226.391z
				"/>
		</g>
		<g style="clip-path:url(#SVGID_00000150079557330411389800000017250078452484300948_);">
			<defs>
				<path id="SVGID_00000013156992028122615750000008939642425336497582_" d="M271.475,380.874h-46.373v-1.866
					c0-5.986,4.853-10.839,10.839-10.839h24.695c5.986,0,10.839,4.853,10.839,10.839V380.874z"/>
			</defs>
			<clipPath id="SVGID_00000099622089642282865970000009458190708201525133_">
				<use xlink:href="#SVGID_00000013156992028122615750000008939642425336497582_"  style="overflow:visible;"/>
			</clipPath>
			<path style="clip-path:url(#SVGID_00000099622089642282865970000009458190708201525133_);fill:#00EDE8;" d="M251.565,365.667
				c0,0,14.78,0.667,14.78,17h9.937l-1.18-12.333l-3.657-4.667l-3.082-1.333L251.565,365.667z"/>
			<path style="clip-path:url(#SVGID_00000099622089642282865970000009458190708201525133_);fill:#00EDE8;" d="M244.048,365.667
				c0,0-14.78,0.667-14.78,17h-9.937l1.18-12.333l3.657-4.667l3.082-1.333L244.048,365.667z"/>
		</g>
		<g style="clip-path:url(#SVGID_00000150079557330411389800000017250078452484300948_);">
			<g>
				<g>
					<g>
						<path style="fill:#E9BC19;" d="M160.977,303.173c-11.929,0-21.633-9.705-21.633-21.634c0-11.929,9.705-21.634,21.633-21.634
							c11.929,0,21.634,9.705,21.634,21.634C182.61,293.468,172.906,303.173,160.977,303.173z"/>
						<path style="fill:#270328;" d="M160.977,262.192c10.685,0,19.347,8.662,19.347,19.347c0,10.685-8.662,19.347-19.347,19.347
							c-10.685,0-19.347-8.662-19.347-19.347C141.63,270.854,150.292,262.192,160.977,262.192 M160.977,257.619
							c-13.19,0-23.92,10.731-23.92,23.92c0,13.19,10.731,23.92,23.92,23.92c13.19,0,23.92-10.731,23.92-23.92
							C184.897,268.349,174.166,257.619,160.977,257.619L160.977,257.619z"/>
					</g>
					<g>
						<path style="fill:#E9BC19;" d="M333.609,303.173c-11.929,0-21.634-9.705-21.634-21.634c0-11.929,9.705-21.634,21.634-21.634
							c11.93,0,21.635,9.705,21.635,21.634C355.244,293.468,345.539,303.173,333.609,303.173z"/>
						<path style="fill:#270328;" d="M333.61,262.192c10.685,0,19.347,8.662,19.347,19.347c0,10.685-8.662,19.347-19.347,19.347
							c-10.685,0-19.347-8.662-19.347-19.347C314.263,270.854,322.925,262.192,333.61,262.192 M333.61,257.619
							c-13.19,0-23.92,10.731-23.92,23.92c0,13.19,10.731,23.92,23.92,23.92c13.19,0,23.92-10.731,23.92-23.92
							C357.53,268.349,346.799,257.619,333.61,257.619L333.61,257.619z"/>
					</g>
				</g>
				<g>
					<path style="fill:#E9BC19;" d="M203.395,365.083c-27.44,0-49.765-22.325-49.765-49.766v-95.986
						c0-1.263,1.024-2.287,2.287-2.287h183.348c1.263,0,2.287,1.024,2.287,2.287v95.986c0,27.44-22.324,49.766-49.765,49.766
						H203.395z"/>
					<path style="fill:#270328;" d="M339.265,219.332v95.986c0,26.221-21.257,47.478-47.478,47.478h-88.392
						c-26.221,0-47.478-21.257-47.478-47.478v-95.986H339.265 M339.265,214.758H155.917c-2.526,0-4.573,2.048-4.573,4.573v95.986
						c0,28.701,23.35,52.052,52.051,52.052h88.392c28.701,0,52.052-23.35,52.052-52.052v-95.986
						C343.839,216.806,341.791,214.758,339.265,214.758L339.265,214.758z"/>
				</g>
				<rect x="241.517" y="226.365" style="fill:#FFFFFF;" width="10.047" height="136.431"/>
				<path style="opacity:0.54;fill:#D07200;" d="M160.977,327.319c0,0,77.443-41.852,167.342-1.362
					C328.318,325.957,254.079,307.836,160.977,327.319z"/>
				
					<ellipse transform="matrix(0.2463 -0.9692 0.9692 0.2463 -103.5413 414.1619)" style="opacity:0.54;fill:#D07200;" cx="214.506" cy="273.651" rx="24.717" ry="24.717"/>
				
					<ellipse transform="matrix(0.7071 -0.7071 0.7071 0.7071 -112.5792 275.511)" style="opacity:0.54;fill:#D07200;" cx="276.282" cy="273.651" rx="24.717" ry="24.717"/>
			</g>
			<ellipse style="fill:#290A2B;" cx="247.591" cy="219.927" rx="91.674" ry="10.12"/>
			<g>
				<path style="fill:#290A2B;" d="M247.591,209.807c50.63,0,91.674,4.531,91.674,10.12c0,5.589-41.044,10.12-91.674,10.12
					c-50.63,0-91.674-4.531-91.674-10.12C155.917,214.338,196.961,209.807,247.591,209.807 M247.591,205.329
					c-24.646,0-47.842,1.062-65.315,2.991c-8.634,0.953-15.459,2.075-20.286,3.335c-3.425,0.894-10.551,2.754-10.551,8.272
					c0,5.518,7.126,7.378,10.551,8.272c4.827,1.26,11.652,2.382,20.286,3.335c17.473,1.929,40.669,2.991,65.315,2.991
					c24.646,0,47.842-1.062,65.315-2.991c8.634-0.953,15.459-2.075,20.286-3.335c3.425-0.894,10.551-2.754,10.551-8.272
					c0-5.518-7.127-7.378-10.551-8.272c-4.827-1.26-11.652-2.382-20.286-3.335C295.433,206.391,272.237,205.329,247.591,205.329
					L247.591,205.329z"/>
			</g>
			<g>
				<defs>
					<ellipse id="SVGID_00000137128682225788489630000017506682354341885827_" cx="247.591" cy="219.927" rx="91.674" ry="10.12"/>
				</defs>
				<clipPath id="SVGID_00000064312734917336495340000001338018320781779844_">
					<use xlink:href="#SVGID_00000137128682225788489630000017506682354341885827_"  style="overflow:visible;"/>
				</clipPath>
				
					<ellipse style="clip-path:url(#SVGID_00000064312734917336495340000001338018320781779844_);fill:#FFFFFF;" cx="247.591" cy="228.261" rx="91.674" ry="10.12"/>
			</g>
			<g>
				<defs>
					<path id="SVGID_00000137844565223396171710000014097159354759128973_" d="M339.265,219.927c0,5.589-41.044,10.12-91.674,10.12
						c-50.63,0-91.674-4.531-91.674-10.12c0-5.589,41.044-142.125,91.674-142.125C298.221,77.802,339.265,214.338,339.265,219.927z"
						/>
				</defs>
				<clipPath id="SVGID_00000168806965071848621360000010034382493799852728_">
					<use xlink:href="#SVGID_00000137844565223396171710000014097159354759128973_"  style="overflow:visible;"/>
				</clipPath>
				<g style="clip-path:url(#SVGID_00000168806965071848621360000010034382493799852728_);">
					<polygon style="fill:#FFFFFF;" points="212.171,233.618 212.171,144.326 277.355,144.326 277.355,236.297 					"/>
				</g>
				
					<rect x="223.779" y="160.398" style="clip-path:url(#SVGID_00000168806965071848621360000010034382493799852728_);fill:#290A2B;" width="5.358" height="63.696"/>
				
					<rect x="242.829" y="152.66" style="clip-path:url(#SVGID_00000168806965071848621360000010034382493799852728_);fill:#290A2B;" width="5.358" height="63.696"/>
				
					<rect x="261.878" y="158.108" style="clip-path:url(#SVGID_00000168806965071848621360000010034382493799852728_);fill:#290A2B;" width="5.358" height="63.696"/>
			</g>
			<path style="fill:none;stroke:#270328;stroke-width:4.5734;stroke-miterlimit:10;" d="M155.917,328.964
				c0,0,88.436-25.088,183.348,0"/>
			<g>
				<path style="fill:#00EDE8;" d="M326.17,348.039c8.108-8.517,13.095-20.033,13.095-32.721v-95.986H326.17V348.039z"/>
				<path style="fill:#00EDE8;" d="M167.718,219.332h-11.801v95.986c0,11.999,4.46,22.95,11.801,31.309V219.332z"/>
			</g>
			<circle style="fill:#FFFFFF;" cx="306.361" cy="343.698" r="7.902"/>
			<g>
				<circle style="fill:#290A2B;" cx="209.79" cy="267.252" r="23.514"/>
				<circle style="fill:#290A2B;" cx="279.439" cy="267.252" r="23.514"/>
				<g>
					<circle style="fill:#FFFFFF;" cx="211.576" cy="270.229" r="23.514"/>
					<circle style="fill:#3D1F40;" cx="210.088" cy="268.74" r="14.882"/>
					<path style="fill:#00EDE8;" d="M211.576,253.858c-0.251,0-0.496,0.026-0.744,0.038c7.871,0.39,14.138,6.877,14.138,14.845
						c0,8.219-6.663,14.882-14.882,14.882c-7.968,0-14.454-6.267-14.845-14.138c-0.011,0.248-0.038,0.493-0.038,0.744
						c0,9.041,7.329,16.37,16.37,16.37s16.37-7.329,16.37-16.37S220.617,253.858,211.576,253.858z"/>
				</g>
				<g>
					<circle style="fill:#FFFFFF;" cx="277.653" cy="270.229" r="23.514"/>
					<circle style="fill:#3D1F40;" cx="279.141" cy="268.74" r="14.882"/>
					<path style="fill:#00EDE8;" d="M277.653,253.858c0.251,0,0.496,0.026,0.744,0.038c-7.871,0.39-14.138,6.877-14.138,14.845
						c0,8.219,6.663,14.882,14.882,14.882c7.968,0,14.454-6.267,14.845-14.138c0.011,0.248,0.038,0.493,0.038,0.744
						c0,9.041-7.329,16.37-16.37,16.37s-16.37-7.329-16.37-16.37S268.612,253.858,277.653,253.858z"/>
				</g>
				<path style="fill:#FFFFFF;" d="M224.89,263.948c0,3.107-2.518,5.625-5.625,5.625s-5.625-2.518-5.625-5.625
					c0-3.107,2.519-5.625,5.625-5.625S224.89,260.841,224.89,263.948z"/>
				<path style="fill:#FFFFFF;" d="M290.391,261.627c0,3.107-2.518,5.625-5.625,5.625c-3.107,0-5.625-2.518-5.625-5.625
					c0-3.107,2.518-5.625,5.625-5.625C287.873,256.002,290.391,258.521,290.391,261.627z"/>
			</g>
		</g>
		<g style="clip-path:url(#SVGID_00000150079557330411389800000017250078452484300948_);">
			<path style="fill:#ACBABD;" d="M507,0.728c-1.723-2.376-3.613-4.629-5.667-6.728H-4v89.808
				c11.571,11.305,26.934,18.788,43.063,20.282c8.63,0.799,18.806-1.096,23.968-7.412c-4.195,10.331,0.769,23.489,8.371,32.383
				c9.054,10.592,21.782,18.304,35.609,20.033c12.098,1.513,24.926-1.881,34.214-9.668c1.929,9.25,7.114,17.843,14.899,23.235
				c12.822,8.88,31.289,8.114,43.735-1.088c11.254,18.813,34.967,29.471,56.497,25.035c8.463-1.743,16.76-5.814,21.898-12.762
				c2.576-3.483,4.185-7.763,4.553-12.075c5.029,8.832,15.764,15.31,25.864,18.986c14.112,5.137,29.444,8.19,44.176,5.279
				c12.779-2.525,24.98-10.217,31.178-21.48c6.878,3.671,15.8,2.563,23.266-0.29c6.172-2.359,12.006-5.79,16.611-10.529
				c8.721-8.973,12.359-22.587,9.276-34.715c-1.25-4.917-3.601-9.51-6.735-13.495c9.61,2.525,20.384,0.926,28.057-5.468
				c10.165-8.471,13.04-23.814,8.351-35.991c2.507,1.31,5.34,2.264,7.937,2.864c12.03,2.781,25.718,5.121,35.863-1.918
				c0.12-0.083,0.228-0.178,0.346-0.263V0.728z"/>
		</g>
		<g style="clip-path:url(#SVGID_00000150079557330411389800000017250078452484300948_);">
			<path style="fill:#FFFFFF;" d="M507-6H-4v73.004C7.571,78.309,22.934,85.792,39.063,87.286c8.63,0.799,18.806-1.096,23.968-7.412
				c-4.195,10.331,0.769,23.489,8.371,32.383c9.054,10.592,21.782,18.304,35.609,20.033c12.098,1.513,24.926-1.881,34.214-9.668
				c1.929,9.25,7.114,17.843,14.899,23.235c12.822,8.88,31.289,8.114,43.735-1.088c11.254,18.813,34.967,29.471,56.497,25.035
				c8.463-1.743,16.76-5.814,21.898-12.762c2.576-3.483,4.185-7.763,4.553-12.075c5.029,8.832,15.764,15.31,25.864,18.986
				c14.112,5.137,29.444,8.19,44.176,5.279c12.779-2.525,24.98-10.217,31.178-21.48c6.878,3.671,15.8,2.563,23.266-0.29
				c6.172-2.359,12.006-5.79,16.611-10.529c8.721-8.973,12.359-22.587,9.276-34.715c-1.25-4.917-3.601-9.51-6.735-13.495
				c9.61,2.525,20.384,0.926,28.057-5.468c10.165-8.471,13.04-23.814,8.351-35.991c2.507,1.31,5.34,2.264,7.937,2.864
				c12.03,2.781,25.718,5.121,35.863-1.917c0.12-0.083,0.228-0.178,0.346-0.263V-6z"/>
		</g>
		<g style="clip-path:url(#SVGID_00000150079557330411389800000017250078452484300948_);">
			<g>
				
					<text transform="matrix(1 0 0 1 174.7378 83.7031)" style="fill:#290A2B; font-family:'Montserrat-ExtraBold'; font-size:80.4975px;">404</text>
			</g>
			
				<text transform="matrix(1 0 0 1 173.8252 120.4775)" style="fill:#280829; font-family:'Montserrat-Regular'; font-size:40.1996px;">ERROR</text>
			
				<text transform="matrix(1 0 0 1 185.1104 132.2324)" style="fill:#280829; font-family:'Montserrat-Medium'; font-size:9.2731px;">OOPS! PAGE NOT FOUND...</text>
		</g>
	</g>
</g>
<g id="DESIGNED_BY_FREEPIK">
	<g id="XMLID_76_">
		<g>
			<g id="XMLID_486_">
				<path id="XMLID_507_" style="fill:#FFFFFF;" d="M181.087,472.134c-0.246,0-0.435,0.085-0.567,0.255
					c-0.133,0.17-0.199,0.421-0.199,0.753v2.392c-0.305-0.331-0.617-0.579-0.937-0.739c-0.321-0.159-0.715-0.24-1.182-0.24
					c-0.807,0-1.458,0.283-1.953,0.848c-0.494,0.566-0.742,1.356-0.742,2.369c0,0.478,0.063,0.923,0.187,1.335
					c0.124,0.412,0.307,0.77,0.549,1.074c0.241,0.305,0.527,0.539,0.857,0.703c0.33,0.164,0.689,0.246,1.078,0.246
					c0.293,0,0.563-0.04,0.809-0.122c0.248-0.08,0.477-0.199,0.689-0.356c0.212-0.156,0.427-0.359,0.644-0.608v0.16
					c0,0.297,0.072,0.525,0.217,0.685c0.145,0.161,0.328,0.24,0.549,0.24c0.226,0,0.409-0.077,0.552-0.231
					c0.143-0.154,0.214-0.386,0.214-0.694v-7.146c0-0.305-0.066-0.534-0.199-0.691C181.521,472.212,181.332,472.134,181.087,472.134
					z M180.021,478.974c-0.14,0.306-0.328,0.533-0.563,0.682c-0.236,0.149-0.496,0.223-0.781,0.223
					c-0.281,0-0.539-0.079-0.777-0.236c-0.237-0.155-0.424-0.387-0.561-0.696c-0.136-0.309-0.204-0.682-0.204-1.122
					c0-0.415,0.063-0.78,0.193-1.095c0.128-0.315,0.309-0.556,0.543-0.724c0.233-0.168,0.499-0.253,0.795-0.253
					c0.285,0,0.547,0.082,0.786,0.246c0.239,0.165,0.429,0.402,0.569,0.712c0.141,0.311,0.21,0.682,0.21,1.114
					C180.232,478.284,180.162,478.667,180.021,478.974z"/>
				<path id="XMLID_504_" style="fill:#FFFFFF;" d="M188.452,478.054c0.233-0.122,0.35-0.385,0.35-0.793
					c0-0.438-0.114-0.87-0.339-1.294c-0.225-0.423-0.564-0.769-1.018-1.035c-0.453-0.268-0.996-0.4-1.628-0.4
					c-0.487,0-0.93,0.078-1.33,0.234c-0.4,0.157-0.737,0.381-1.009,0.674c-0.273,0.293-0.48,0.644-0.623,1.054
					c-0.143,0.409-0.214,0.853-0.214,1.332c0,1.017,0.289,1.822,0.867,2.415c0.577,0.592,1.387,0.89,2.427,0.89
					c0.455,0,0.858-0.059,1.207-0.178c0.352-0.12,0.641-0.268,0.873-0.448c0.231-0.18,0.404-0.368,0.519-0.564
					c0.115-0.197,0.172-0.367,0.172-0.514c0-0.166-0.052-0.294-0.155-0.386c-0.102-0.09-0.237-0.137-0.403-0.137
					c-0.154,0-0.273,0.035-0.356,0.107c-0.203,0.19-0.366,0.34-0.493,0.452c-0.126,0.111-0.265,0.215-0.415,0.312
					c-0.15,0.098-0.305,0.167-0.466,0.214c-0.16,0.045-0.337,0.067-0.531,0.067c-0.289,0-0.553-0.07-0.792-0.213
					c-0.239-0.142-0.432-0.354-0.576-0.635c-0.145-0.281-0.219-0.605-0.222-0.973h3.168
					C187.89,478.235,188.219,478.174,188.452,478.054z M184.297,477.315c0.056-0.546,0.212-0.959,0.472-1.238
					c0.259-0.28,0.59-0.418,0.994-0.418c0.423,0,0.764,0.137,1.024,0.412c0.259,0.275,0.409,0.69,0.448,1.244H184.297z"/>
				<path id="XMLID_503_" style="fill:#FFFFFF;" d="M193.879,477.617c-0.319-0.17-0.729-0.316-1.231-0.439
					c-0.425-0.103-0.756-0.19-0.997-0.261c-0.242-0.07-0.434-0.16-0.577-0.27c-0.142-0.109-0.213-0.248-0.213-0.419
					c0-0.186,0.096-0.341,0.29-0.465c0.194-0.126,0.437-0.187,0.73-0.187c0.286,0,0.511,0.047,0.677,0.142
					c0.166,0.095,0.31,0.222,0.433,0.38c0.151,0.19,0.284,0.332,0.401,0.427c0.116,0.095,0.258,0.143,0.423,0.143
					c0.231,0,0.408-0.06,0.532-0.178c0.124-0.119,0.186-0.271,0.186-0.457c0-0.171-0.058-0.345-0.175-0.523
					c-0.116-0.178-0.286-0.34-0.51-0.486c-0.223-0.146-0.502-0.264-0.837-0.35c-0.333-0.088-0.71-0.131-1.13-0.131
					c-0.535,0-0.99,0.085-1.367,0.259c-0.378,0.172-0.665,0.403-0.859,0.691c-0.194,0.289-0.291,0.596-0.291,0.92
					c0,0.364,0.105,0.671,0.315,0.92c0.21,0.249,0.489,0.45,0.84,0.602c0.35,0.152,0.804,0.298,1.362,0.436
					c0.494,0.12,0.849,0.244,1.066,0.375c0.216,0.131,0.323,0.338,0.323,0.622c0,0.187-0.104,0.352-0.311,0.497
					c-0.208,0.144-0.474,0.216-0.798,0.216c-0.4,0-0.715-0.071-0.947-0.213c-0.231-0.143-0.431-0.358-0.597-0.647
					c-0.082-0.15-0.17-0.267-0.261-0.35c-0.091-0.082-0.221-0.124-0.391-0.124c-0.194,0-0.355,0.064-0.481,0.19
					c-0.128,0.126-0.19,0.278-0.19,0.456c0,0.27,0.099,0.537,0.297,0.805c0.198,0.266,0.505,0.489,0.92,0.667
					c0.415,0.178,0.914,0.267,1.495,0.267c0.61,0,1.127-0.082,1.552-0.246c0.425-0.164,0.747-0.406,0.964-0.724
					c0.218-0.319,0.327-0.702,0.327-1.149c0-0.297-0.082-0.56-0.246-0.791C194.438,477.988,194.196,477.787,193.879,477.617z"/>
				<path id="XMLID_502_" style="fill:#FFFFFF;" d="M196.486,474.543c-0.237,0-0.43,0.081-0.578,0.243
					c-0.149,0.162-0.222,0.404-0.222,0.724v4.635c0,0.317,0.073,0.56,0.222,0.73c0.148,0.17,0.341,0.255,0.578,0.255
					c0.238,0,0.433-0.083,0.588-0.249c0.154-0.166,0.231-0.412,0.231-0.737v-4.682c0-0.289-0.077-0.514-0.231-0.677
					C196.919,474.624,196.724,474.543,196.486,474.543z"/>
				<path id="XMLID_501_" style="fill:#FFFFFF;" d="M196.504,472.204c-0.217,0-0.409,0.073-0.573,0.223
					c-0.164,0.149-0.246,0.337-0.246,0.567c0,0.254,0.08,0.45,0.24,0.588c0.16,0.139,0.353,0.208,0.579,0.208
					c0.217,0,0.405-0.071,0.563-0.211c0.158-0.14,0.238-0.335,0.238-0.585c0-0.257-0.081-0.453-0.243-0.588
					C196.9,472.272,196.714,472.204,196.504,472.204z"/>
				<path id="XMLID_498_" style="fill:#FFFFFF;" d="M203.626,474.543c-0.217,0-0.395,0.078-0.535,0.231
					c-0.139,0.155-0.208,0.372-0.208,0.653v0.22c-0.289-0.376-0.602-0.652-0.937-0.829c-0.337-0.175-0.735-0.264-1.194-0.264
					c-0.384,0-0.736,0.068-1.056,0.204c-0.32,0.137-0.604,0.34-0.849,0.609c-0.245,0.268-0.433,0.599-0.566,0.992
					c-0.133,0.391-0.199,0.831-0.199,1.318c0,0.653,0.109,1.228,0.327,1.727c0.217,0.499,0.529,0.886,0.934,1.163
					c0.407,0.277,0.88,0.416,1.422,0.416c0.45,0,0.84-0.091,1.165-0.273c0.327-0.182,0.615-0.447,0.864-0.796
					c-0.008,0.531-0.02,0.915-0.035,1.155c-0.016,0.24-0.07,0.464-0.163,0.673c-0.093,0.21-0.255,0.374-0.486,0.49
					c-0.231,0.117-0.557,0.175-0.977,0.175c-0.205,0-0.388-0.02-0.546-0.056c-0.159-0.038-0.294-0.095-0.406-0.172
					c-0.112-0.078-0.216-0.17-0.309-0.279c-0.093-0.109-0.183-0.217-0.27-0.324c-0.178-0.209-0.386-0.314-0.624-0.314
					c-0.189,0-0.352,0.062-0.486,0.187c-0.135,0.124-0.202,0.285-0.202,0.483c0,0.262,0.119,0.516,0.356,0.763
					c0.238,0.247,0.576,0.449,1.014,0.605c0.439,0.156,0.938,0.234,1.496,0.234c0.609,0,1.119-0.061,1.528-0.184
					c0.409-0.122,0.741-0.311,0.994-0.563c0.253-0.254,0.437-0.574,0.552-0.961c0.115-0.389,0.173-0.851,0.173-1.389v-4.706
					c0-0.384-0.051-0.678-0.155-0.882C204.146,474.645,203.938,474.543,203.626,474.543z M202.599,478.908
					c-0.151,0.291-0.345,0.508-0.586,0.653c-0.239,0.144-0.493,0.217-0.762,0.217c-0.455,0-0.826-0.168-1.113-0.505
					c-0.287-0.336-0.43-0.834-0.43-1.49c0-0.649,0.139-1.15,0.418-1.502s0.649-0.528,1.113-0.528c0.475,0,0.857,0.184,1.148,0.553
					c0.291,0.367,0.436,0.882,0.436,1.543C202.825,478.265,202.749,478.617,202.599,478.908z"/>
				<path id="XMLID_497_" style="fill:#FFFFFF;" d="M210.978,475.611c-0.165-0.339-0.417-0.602-0.753-0.788
					c-0.337-0.186-0.718-0.28-1.146-0.28c-0.439,0-0.827,0.088-1.166,0.264c-0.339,0.176-0.65,0.452-0.935,0.828v-0.196
					c0-0.193-0.034-0.358-0.104-0.493c-0.07-0.134-0.162-0.234-0.276-0.302c-0.115-0.068-0.244-0.101-0.387-0.101
					c-0.233,0-0.417,0.076-0.552,0.228c-0.134,0.153-0.201,0.383-0.201,0.692v4.682c0,0.317,0.076,0.56,0.226,0.73
					c0.15,0.17,0.342,0.255,0.576,0.255c0.241,0,0.438-0.082,0.59-0.246c0.152-0.164,0.228-0.411,0.228-0.74v-2.03
					c0-0.661,0.04-1.111,0.119-1.353c0.11-0.3,0.284-0.537,0.522-0.71c0.237-0.173,0.5-0.258,0.788-0.258
					c0.444,0,0.74,0.142,0.888,0.425c0.148,0.283,0.223,0.691,0.223,1.225v2.7c0,0.317,0.074,0.56,0.226,0.73
					c0.15,0.17,0.345,0.255,0.587,0.255c0.238,0,0.431-0.083,0.579-0.249c0.149-0.166,0.223-0.412,0.223-0.737v-3.015
					c0-0.356-0.016-0.648-0.048-0.878C211.155,476.023,211.085,475.809,210.978,475.611z"/>
				<path id="XMLID_494_" style="fill:#FFFFFF;" d="M217.821,478.054c0.234-0.122,0.35-0.385,0.35-0.793
					c0-0.438-0.113-0.87-0.338-1.294c-0.226-0.423-0.565-0.769-1.019-1.035c-0.453-0.268-0.995-0.4-1.628-0.4
					c-0.487,0-0.93,0.078-1.33,0.234c-0.4,0.157-0.736,0.381-1.009,0.674c-0.273,0.293-0.481,0.644-0.624,1.054
					c-0.142,0.409-0.214,0.853-0.214,1.332c0,1.017,0.289,1.822,0.867,2.415c0.578,0.592,1.387,0.89,2.427,0.89
					c0.455,0,0.858-0.059,1.208-0.178c0.35-0.12,0.64-0.268,0.871-0.448c0.232-0.18,0.405-0.368,0.52-0.564
					c0.115-0.197,0.172-0.367,0.172-0.514c0-0.166-0.051-0.294-0.154-0.386c-0.103-0.09-0.238-0.137-0.404-0.137
					c-0.154,0-0.273,0.035-0.356,0.107c-0.201,0.19-0.366,0.34-0.492,0.452c-0.128,0.111-0.266,0.215-0.416,0.312
					c-0.151,0.098-0.306,0.167-0.466,0.214c-0.161,0.045-0.338,0.067-0.532,0.067c-0.289,0-0.553-0.07-0.792-0.213
					c-0.239-0.142-0.431-0.354-0.575-0.635c-0.145-0.281-0.218-0.605-0.223-0.973h3.169
					C217.26,478.235,217.588,478.174,217.821,478.054z M213.667,477.315c0.055-0.546,0.212-0.959,0.471-1.238
					c0.259-0.28,0.591-0.418,0.995-0.418c0.423,0,0.765,0.137,1.024,0.412c0.259,0.275,0.409,0.69,0.448,1.244H213.667z"/>
				<path id="XMLID_491_" style="fill:#FFFFFF;" d="M224.207,472.134c-0.245,0-0.434,0.085-0.567,0.255
					c-0.132,0.17-0.2,0.421-0.2,0.753v2.392c-0.304-0.331-0.616-0.579-0.937-0.739c-0.32-0.159-0.714-0.24-1.181-0.24
					c-0.807,0-1.458,0.283-1.953,0.848c-0.495,0.566-0.741,1.356-0.741,2.369c0,0.478,0.062,0.923,0.187,1.335
					c0.124,0.412,0.307,0.77,0.549,1.074c0.241,0.305,0.527,0.539,0.857,0.703c0.33,0.164,0.689,0.246,1.077,0.246
					c0.293,0,0.563-0.04,0.81-0.122c0.247-0.08,0.476-0.199,0.688-0.356c0.211-0.156,0.426-0.359,0.643-0.608v0.16
					c0,0.297,0.073,0.525,0.217,0.685c0.145,0.161,0.328,0.24,0.549,0.24c0.226,0,0.41-0.077,0.552-0.231
					c0.143-0.154,0.214-0.386,0.214-0.694v-7.146c0-0.305-0.066-0.534-0.199-0.691C224.64,472.212,224.452,472.134,224.207,472.134z
					 M223.141,478.974c-0.14,0.306-0.328,0.533-0.564,0.682c-0.235,0.149-0.495,0.223-0.781,0.223c-0.281,0-0.54-0.079-0.776-0.236
					c-0.238-0.155-0.425-0.387-0.561-0.696c-0.137-0.309-0.205-0.682-0.205-1.122c0-0.415,0.064-0.78,0.193-1.095
					c0.129-0.315,0.31-0.556,0.543-0.724c0.233-0.168,0.499-0.253,0.795-0.253c0.285,0,0.547,0.082,0.787,0.246
					c0.239,0.165,0.43,0.402,0.57,0.712c0.14,0.311,0.21,0.682,0.21,1.114C223.352,478.284,223.281,478.667,223.141,478.974z"/>
				<path id="XMLID_488_" style="fill:#FFFFFF;" d="M233.586,474.937c-0.406-0.254-0.878-0.382-1.416-0.382
					c-0.467,0-0.859,0.084-1.175,0.252c-0.317,0.168-0.627,0.411-0.932,0.727v-2.475c0-0.297-0.068-0.524-0.202-0.685
					c-0.134-0.16-0.326-0.24-0.576-0.24c-0.237,0-0.423,0.084-0.555,0.252c-0.132,0.168-0.198,0.416-0.198,0.745v7.075
					c0,0.305,0.068,0.535,0.205,0.692c0.136,0.156,0.319,0.234,0.549,0.234c0.226,0,0.412-0.077,0.558-0.234
					c0.146-0.157,0.22-0.388,0.22-0.692v-0.16c0.178,0.205,0.322,0.361,0.43,0.463c0.109,0.103,0.241,0.203,0.395,0.3
					c0.154,0.098,0.341,0.175,0.561,0.234c0.22,0.06,0.454,0.089,0.704,0.089c0.407,0,0.781-0.082,1.118-0.246
					c0.338-0.164,0.626-0.397,0.864-0.698c0.237-0.3,0.418-0.656,0.543-1.065c0.125-0.41,0.187-0.859,0.187-1.35
					c0-0.665-0.112-1.241-0.336-1.725C234.305,475.563,233.991,475.193,233.586,474.937z M232.796,479.348
					c-0.295,0.354-0.646,0.531-1.053,0.531c-0.479,0-0.866-0.174-1.161-0.521c-0.295-0.346-0.442-0.841-0.442-1.487
					c0-0.439,0.069-0.818,0.208-1.136c0.138-0.319,0.328-0.562,0.57-0.73c0.24-0.168,0.516-0.253,0.825-0.253
					c0.3,0,0.564,0.085,0.79,0.253c0.225,0.168,0.399,0.406,0.522,0.715c0.123,0.308,0.184,0.677,0.184,1.104
					C233.238,478.486,233.09,478.993,232.796,479.348z"/>
				<path id="XMLID_487_" style="fill:#FFFFFF;" d="M240.529,474.641c-0.112-0.066-0.23-0.098-0.353-0.098
					c-0.171,0-0.303,0.03-0.395,0.09c-0.093,0.058-0.181,0.173-0.264,0.344c-0.083,0.17-0.176,0.406-0.279,0.706l-1.3,3.71
					l-1.371-3.988c-0.091-0.277-0.195-0.489-0.314-0.638c-0.119-0.148-0.295-0.223-0.529-0.223c-0.135,0-0.264,0.035-0.389,0.107
					c-0.124,0.071-0.222,0.166-0.294,0.285c-0.071,0.118-0.107,0.247-0.107,0.385c0,0.13,0.062,0.341,0.184,0.628l1.994,5.022
					l-0.148,0.362c-0.111,0.265-0.209,0.466-0.294,0.601c-0.085,0.138-0.181,0.234-0.288,0.289c-0.107,0.056-0.254,0.084-0.44,0.084
					c-0.074,0-0.163-0.012-0.266-0.035c-0.083-0.024-0.168-0.037-0.256-0.037c-0.221,0-0.388,0.051-0.5,0.152
					c-0.114,0.101-0.17,0.245-0.17,0.43c0,0.273,0.118,0.461,0.356,0.564c0.237,0.103,0.593,0.154,1.068,0.154
					c0.487,0,0.873-0.074,1.161-0.223c0.287-0.148,0.517-0.361,0.691-0.638c0.174-0.277,0.353-0.658,0.535-1.145l2.113-5.532
					c0.051-0.142,0.095-0.283,0.13-0.421c0.037-0.139,0.061-0.246,0.078-0.321c0-0.123-0.032-0.239-0.093-0.35
					C240.729,474.794,240.642,474.706,240.529,474.641z"/>
			</g>
			<g id="XMLID_450_">
				<g id="XMLID_465_">
					<path id="XMLID_485_" style="fill:#FFFFFF;" d="M262.93,472.129c-0.533,0-0.954,0.069-1.26,0.204
						c-0.307,0.137-0.527,0.354-0.654,0.652c-0.129,0.301-0.191,0.702-0.191,1.211v0.487h-0.387c-0.543,0-0.815,0.192-0.815,0.582
						c0,0.174,0.066,0.316,0.196,0.424c0.132,0.111,0.316,0.163,0.558,0.163h0.447v4.294c0,0.319,0.074,0.563,0.227,0.73
						c0.154,0.17,0.344,0.254,0.574,0.254c0.243,0,0.438-0.084,0.589-0.254c0.156-0.167,0.231-0.411,0.231-0.73v-4.294h0.395
						c0.29,0,0.517-0.035,0.68-0.107c0.166-0.071,0.245-0.24,0.245-0.502c0-0.374-0.306-0.56-0.926-0.56h-0.395v-0.386
						c0-0.322,0.043-0.568,0.122-0.74c0.087-0.172,0.273-0.259,0.566-0.259c0.107,0,0.241,0.014,0.389,0.034
						c0.156,0.026,0.267,0.038,0.33,0.038c0.134,0,0.252-0.054,0.348-0.16c0.101-0.107,0.15-0.236,0.15-0.384
						C264.35,472.359,263.879,472.129,262.93,472.129z"/>
					<path id="XMLID_484_" style="fill:#FFFFFF;" d="M268.089,474.795c-0.32-0.171-0.648-0.255-0.99-0.255
						c-0.342,0-0.611,0.084-0.818,0.255c-0.203,0.171-0.4,0.421-0.592,0.755c-0.014-0.334-0.08-0.584-0.198-0.755
						c-0.119-0.171-0.312-0.255-0.583-0.255c-0.525,0-0.788,0.364-0.788,1.093v4.513c0,0.323,0.078,0.569,0.225,0.733
						c0.15,0.169,0.34,0.25,0.579,0.25c0.237,0,0.432-0.081,0.586-0.247c0.151-0.163,0.234-0.41,0.234-0.737v-1.355
						c0-0.486,0.014-0.899,0.045-1.239c0.034-0.336,0.09-0.63,0.17-0.878c0.084-0.243,0.201-0.425,0.353-0.553
						c0.149-0.122,0.345-0.186,0.582-0.186c0.172,0,0.374,0.037,0.602,0.108c0.226,0.073,0.37,0.112,0.433,0.112
						c0.157,0,0.304-0.064,0.441-0.195c0.135-0.126,0.204-0.292,0.204-0.488C268.571,475.193,268.411,474.966,268.089,474.795z"/>
					<path id="XMLID_481_" style="fill:#FFFFFF;" d="M274.176,478.052c0.233-0.122,0.351-0.386,0.351-0.791
						c0-0.441-0.113-0.87-0.339-1.296c-0.222-0.423-0.566-0.77-1.018-1.034c-0.453-0.27-0.997-0.403-1.629-0.403
						c-0.488,0-0.931,0.078-1.33,0.233c-0.402,0.156-0.735,0.38-1.007,0.674c-0.276,0.295-0.484,0.643-0.624,1.055
						c-0.144,0.41-0.217,0.855-0.217,1.333c0,1.017,0.292,1.823,0.87,2.418c0.577,0.593,1.385,0.888,2.429,0.888
						c0.453,0,0.857-0.06,1.207-0.179c0.349-0.117,0.639-0.268,0.874-0.446c0.233-0.182,0.405-0.368,0.522-0.566
						c0.112-0.195,0.167-0.365,0.167-0.512c0-0.167-0.048-0.294-0.152-0.386c-0.105-0.092-0.238-0.139-0.406-0.139
						c-0.152,0-0.271,0.038-0.355,0.109c-0.202,0.189-0.367,0.34-0.494,0.449c-0.128,0.113-0.264,0.217-0.415,0.312
						c-0.15,0.097-0.307,0.17-0.466,0.213c-0.16,0.048-0.336,0.069-0.531,0.069c-0.29,0-0.552-0.07-0.793-0.212
						c-0.24-0.145-0.431-0.356-0.578-0.635c-0.144-0.281-0.216-0.607-0.221-0.974h3.171
						C273.615,478.233,273.943,478.173,274.176,478.052z M270.021,477.312c0.054-0.546,0.213-0.957,0.472-1.236
						c0.259-0.28,0.591-0.417,0.995-0.417c0.426,0,0.764,0.136,1.025,0.413c0.26,0.273,0.407,0.688,0.446,1.241H270.021z"/>
					<path id="XMLID_478_" style="fill:#FFFFFF;" d="M280.916,478.052c0.231-0.122,0.351-0.386,0.351-0.791
						c0-0.441-0.116-0.87-0.34-1.296c-0.222-0.423-0.563-0.77-1.013-1.034c-0.46-0.27-1.003-0.403-1.633-0.403
						c-0.486,0-0.932,0.078-1.33,0.233c-0.401,0.156-0.736,0.38-1.009,0.674c-0.273,0.295-0.481,0.643-0.622,1.055
						c-0.145,0.41-0.217,0.855-0.217,1.333c0,1.017,0.29,1.823,0.868,2.418c0.58,0.593,1.387,0.888,2.429,0.888
						c0.453,0,0.86-0.06,1.208-0.179c0.347-0.117,0.641-0.268,0.872-0.446c0.234-0.182,0.408-0.368,0.519-0.566
						c0.117-0.195,0.171-0.365,0.171-0.512c0-0.167-0.047-0.294-0.15-0.386c-0.104-0.092-0.238-0.139-0.406-0.139
						c-0.151,0-0.27,0.038-0.355,0.109c-0.203,0.189-0.368,0.34-0.492,0.449c-0.128,0.113-0.264,0.217-0.415,0.312
						c-0.152,0.097-0.307,0.17-0.469,0.213c-0.157,0.048-0.336,0.069-0.528,0.069c-0.291,0-0.555-0.07-0.795-0.212
						c-0.239-0.145-0.431-0.356-0.575-0.635c-0.144-0.281-0.218-0.607-0.222-0.974h3.17
						C280.354,478.233,280.682,478.173,280.916,478.052z M276.762,477.312c0.053-0.546,0.211-0.957,0.469-1.236
						c0.261-0.28,0.592-0.417,0.995-0.417c0.425,0,0.763,0.136,1.027,0.413c0.257,0.273,0.407,0.688,0.447,1.241H276.762z"/>
					<path id="XMLID_475_" style="fill:#FFFFFF;" d="M286.926,474.937c-0.42-0.256-0.882-0.386-1.379-0.386
						c-0.415,0-0.79,0.089-1.114,0.267c-0.331,0.176-0.649,0.452-0.952,0.828v-0.195c0-0.296-0.071-0.519-0.218-0.677
						c-0.143-0.156-0.329-0.234-0.56-0.234c-0.233,0-0.419,0.078-0.553,0.228c-0.134,0.155-0.2,0.382-0.2,0.692v6.995
						c0,0.355,0.051,0.62,0.146,0.807c0.102,0.183,0.301,0.275,0.607,0.275c0.518,0,0.778-0.359,0.778-1.068v-2.433
						c0.287,0.358,0.586,0.634,0.901,0.816c0.314,0.187,0.704,0.279,1.165,0.279c0.385,0,0.741-0.076,1.079-0.227
						c0.334-0.153,0.622-0.372,0.868-0.654c0.245-0.283,0.441-0.632,0.58-1.05c0.14-0.419,0.21-0.878,0.21-1.376
						c0-0.677-0.122-1.261-0.366-1.758C287.675,475.572,287.346,475.196,286.926,474.937z M286.451,478.94
						c-0.137,0.313-0.32,0.546-0.552,0.704c-0.229,0.154-0.48,0.232-0.748,0.232c-0.454,0-0.828-0.179-1.133-0.536
						c-0.306-0.358-0.46-0.862-0.46-1.504c0-0.686,0.154-1.204,0.462-1.558c0.306-0.35,0.684-0.527,1.13-0.527
						c0.281,0,0.541,0.084,0.77,0.248c0.229,0.163,0.411,0.397,0.541,0.705c0.13,0.306,0.197,0.674,0.197,1.101
						C286.658,478.248,286.589,478.626,286.451,478.94z"/>
					<path id="XMLID_474_" style="fill:#FFFFFF;" d="M289.9,474.54c-0.238,0-0.428,0.079-0.58,0.245
						c-0.146,0.162-0.222,0.403-0.222,0.721v4.641c0,0.313,0.076,0.555,0.222,0.729c0.152,0.17,0.342,0.254,0.58,0.254
						c0.238,0,0.432-0.082,0.588-0.25c0.154-0.165,0.231-0.41,0.231-0.732v-4.688c0-0.287-0.078-0.512-0.231-0.675
						C290.332,474.619,290.138,474.54,289.9,474.54z"/>
					<path id="XMLID_473_" style="fill:#FFFFFF;" d="M289.917,472.199c-0.217,0-0.408,0.076-0.571,0.223
						c-0.166,0.149-0.248,0.339-0.248,0.568c0,0.253,0.081,0.447,0.242,0.586c0.159,0.138,0.35,0.209,0.577,0.209
						c0.22,0,0.408-0.071,0.566-0.209c0.157-0.14,0.236-0.335,0.236-0.585c0-0.257-0.082-0.454-0.244-0.591
						C290.314,472.267,290.13,472.199,289.917,472.199z"/>
					<path id="XMLID_472_" style="fill:#FFFFFF;" d="M297.258,479.569l-1.662-2.614l0.86-0.789c0.438-0.395,0.659-0.714,0.659-0.951
						c0-0.192-0.068-0.355-0.2-0.483c-0.139-0.128-0.306-0.193-0.51-0.193c-0.168,0-0.312,0.043-0.431,0.13
						c-0.121,0.086-0.29,0.251-0.517,0.486l-1.822,1.914v-3.933c0-0.329-0.074-0.582-0.221-0.751
						c-0.148-0.172-0.344-0.258-0.593-0.258c-0.255,0-0.457,0.093-0.596,0.283c-0.135,0.189-0.207,0.462-0.207,0.821v6.913
						c0,0.323,0.073,0.569,0.215,0.733c0.141,0.169,0.339,0.25,0.588,0.25c0.213,0,0.406-0.084,0.566-0.254
						c0.165-0.167,0.248-0.406,0.248-0.718v-1.291l0.88-0.83l1.427,2.353c0.181,0.278,0.33,0.471,0.436,0.58
						c0.106,0.109,0.26,0.16,0.458,0.16c0.226,0,0.413-0.073,0.553-0.221c0.142-0.151,0.214-0.352,0.214-0.61
						c0-0.089-0.029-0.19-0.082-0.289C297.47,479.909,297.379,479.765,297.258,479.569z"/>
					<path id="XMLID_471_" style="fill:#FFFFFF;" d="M299.45,479.343c-0.25,0-0.458,0.087-0.63,0.261
						c-0.17,0.173-0.256,0.381-0.256,0.622c0,0.287,0.09,0.51,0.268,0.665c0.179,0.159,0.389,0.238,0.633,0.238
						c0.237,0,0.444-0.079,0.624-0.241c0.174-0.157,0.264-0.38,0.264-0.662c0-0.243-0.089-0.454-0.264-0.626
						C299.909,479.43,299.698,479.343,299.45,479.343z"/>
					<path id="XMLID_470_" style="fill:#FFFFFF;" d="M306.835,478.417c-0.167,0-0.308,0.054-0.422,0.156
						c-0.113,0.104-0.219,0.245-0.318,0.427c-0.178,0.309-0.381,0.538-0.616,0.689c-0.231,0.15-0.509,0.225-0.835,0.225
						c-0.24,0-0.463-0.045-0.665-0.141c-0.201-0.093-0.372-0.229-0.516-0.409c-0.143-0.18-0.252-0.398-0.325-0.652
						c-0.075-0.256-0.114-0.537-0.114-0.842c0-0.646,0.147-1.161,0.439-1.534c0.294-0.375,0.682-0.561,1.158-0.561
						c0.333,0,0.607,0.075,0.821,0.227c0.219,0.148,0.424,0.375,0.622,0.674c0.109,0.158,0.209,0.269,0.299,0.339
						c0.09,0.068,0.201,0.104,0.338,0.104c0.202,0,0.377-0.068,0.524-0.203c0.143-0.135,0.214-0.3,0.214-0.492
						c0-0.192-0.063-0.397-0.192-0.617c-0.128-0.218-0.314-0.424-0.556-0.62c-0.245-0.192-0.54-0.352-0.89-0.474
						c-0.353-0.123-0.737-0.184-1.157-0.184c-0.674,0-1.26,0.138-1.746,0.419c-0.486,0.279-0.859,0.674-1.113,1.183
						c-0.259,0.511-0.387,1.098-0.387,1.765c0,0.981,0.281,1.764,0.841,2.349c0.562,0.582,1.344,0.876,2.348,0.876
						c0.469,0,0.893-0.065,1.269-0.192c0.377-0.126,0.688-0.295,0.934-0.502c0.248-0.207,0.434-0.425,0.554-0.656
						c0.121-0.229,0.182-0.446,0.182-0.646c0-0.169-0.066-0.331-0.198-0.481C307.198,478.493,307.033,478.417,306.835,478.417z"/>
					<path id="XMLID_467_" style="fill:#FFFFFF;" d="M313.647,475.453c-0.288-0.29-0.629-0.518-1.027-0.674
						c-0.4-0.161-0.846-0.239-1.336-0.239c-0.483,0-0.924,0.078-1.326,0.234c-0.399,0.158-0.737,0.38-1.019,0.669
						c-0.281,0.288-0.498,0.636-0.649,1.045c-0.146,0.408-0.224,0.858-0.224,1.349c0,0.485,0.076,0.929,0.219,1.332
						c0.152,0.402,0.369,0.75,0.657,1.048c0.285,0.292,0.627,0.521,1.016,0.676c0.392,0.159,0.835,0.239,1.326,0.239
						c0.492,0,0.937-0.08,1.336-0.234c0.394-0.158,0.735-0.382,1.02-0.675c0.286-0.291,0.502-0.641,0.656-1.05
						c0.146-0.408,0.222-0.855,0.222-1.336c0-0.489-0.075-0.932-0.221-1.339C314.148,476.096,313.933,475.749,313.647,475.453z
						 M312.455,479.368c-0.29,0.372-0.682,0.557-1.171,0.557c-0.324,0-0.605-0.086-0.846-0.253c-0.24-0.168-0.423-0.409-0.553-0.729
						c-0.129-0.317-0.194-0.684-0.194-1.108c0-0.428,0.066-0.803,0.197-1.125c0.131-0.321,0.314-0.563,0.556-0.727
						c0.242-0.164,0.522-0.246,0.84-0.246c0.489,0,0.881,0.182,1.171,0.555c0.289,0.367,0.436,0.881,0.436,1.543
						C312.891,478.487,312.744,478.999,312.455,479.368z"/>
					<path id="XMLID_466_" style="fill:#FFFFFF;" d="M323.569,474.813c-0.32-0.173-0.705-0.262-1.146-0.262
						c-0.381,0-0.726,0.081-1.039,0.241c-0.313,0.161-0.607,0.408-0.881,0.738c-0.191-0.326-0.431-0.572-0.725-0.735
						c-0.292-0.162-0.641-0.243-1.048-0.243c-0.394,0-0.748,0.079-1.07,0.241c-0.319,0.156-0.619,0.403-0.903,0.738v-0.153
						c0-0.261-0.074-0.466-0.222-0.616c-0.15-0.145-0.334-0.221-0.557-0.221c-0.227,0-0.412,0.078-0.555,0.239
						c-0.14,0.157-0.21,0.389-0.21,0.694v4.636c0,0.336,0.078,0.591,0.235,0.765c0.156,0.171,0.357,0.257,0.604,0.257
						c0.248,0,0.447-0.087,0.603-0.257c0.15-0.173,0.226-0.428,0.226-0.765v-2.188c0-0.684,0.086-1.206,0.253-1.566
						c0.168-0.369,0.516-0.551,1.048-0.551c0.263,0,0.459,0.072,0.581,0.22c0.122,0.142,0.198,0.331,0.226,0.552
						c0.027,0.226,0.04,0.544,0.04,0.953v2.581c0,0.341,0.078,0.594,0.232,0.767c0.148,0.17,0.349,0.255,0.594,0.255
						c0.254,0,0.455-0.085,0.611-0.255c0.156-0.173,0.231-0.426,0.231-0.767v-2.154c0-0.694,0.062-1.178,0.178-1.452
						c0.109-0.209,0.259-0.383,0.45-0.508c0.192-0.125,0.395-0.192,0.609-0.192c0.264,0,0.463,0.072,0.596,0.215
						c0.128,0.142,0.209,0.319,0.239,0.529c0.029,0.209,0.043,0.486,0.043,0.836v2.725c0,0.336,0.079,0.591,0.235,0.765
						c0.157,0.171,0.356,0.257,0.603,0.257c0.253,0,0.458-0.085,0.612-0.255c0.154-0.173,0.229-0.426,0.229-0.767v-3.163
						c0-0.629-0.068-1.091-0.206-1.385C324.128,475.237,323.888,474.987,323.569,474.813z"/>
				</g>
				<g id="XMLID_451_">
					<path id="XMLID_464_" style="fill:#FFFFFF;" d="M245.273,477.444c-0.001-0.004-0.001-0.006-0.001-0.011
						C245.272,477.438,245.272,477.44,245.273,477.444z"/>
					<path id="XMLID_463_" style="fill:#FFFFFF;" d="M245.355,477.961c0.001,0,0.001,0,0.001,0
						c-0.031-0.147-0.055-0.294-0.073-0.438C245.301,477.669,245.326,477.816,245.355,477.961z"/>
					<path id="XMLID_462_" style="fill:#FFFFFF;" d="M245.891,479.466c-0.004-0.006-0.007-0.013-0.01-0.021
						C245.885,479.452,245.888,479.46,245.891,479.466z"/>
					<path id="XMLID_461_" style="fill:#FFFFFF;" d="M245.84,479.366c-0.014-0.027-0.027-0.056-0.041-0.084
						C245.813,479.311,245.826,479.338,245.84,479.366z"/>
					<path id="XMLID_460_" style="fill:#FFFFFF;" d="M245.506,478.541c0.079,0.25,0.175,0.492,0.286,0.724
						c-0.113-0.236-0.206-0.479-0.284-0.724H245.506z"/>
					<path id="XMLID_459_" style="fill:#FFFFFF;" d="M250.736,470.681l-0.076-0.259c0.299-0.063,0.524-0.329,0.524-0.646
						c0-0.364-0.297-0.659-0.66-0.659c-0.365,0-0.66,0.295-0.66,0.659c0,0.317,0.225,0.583,0.522,0.646l0.084,0.289
						c-1.021,0.14-1.834,0.539-1.834,0.539l0.144,0.441c0.618-0.206,1.153-0.331,1.64-0.383c0.476-0.051,0.834-0.073,1.126-0.073
						c0.314,0,0.544,0.025,0.809,0.069l0.075-0.476C252.429,470.828,251.698,470.603,250.736,470.681z"/>
					<path id="XMLID_458_" style="fill:#FFFFFF;" d="M245.453,473.188c-0.017,0.024-0.497,0.465-0.876,1.28
						c-0.016-0.026-0.035-0.051-0.056-0.074c-0.113-0.124-0.272-0.187-0.473-0.184c-0.002,0-0.006,0-0.01,0
						c-0.124,0-0.21-0.042-0.266-0.092c0.055-0.071,0.089-0.16,0.089-0.258c0-0.231-0.187-0.419-0.419-0.419
						c-0.23,0-0.417,0.188-0.417,0.419c0,0.231,0.187,0.417,0.417,0.417c0.037,0,0.071-0.005,0.105-0.012
						c0.102,0.113,0.265,0.214,0.504,0.209c0.123-0.001,0.214,0.03,0.273,0.097c0.07,0.076,0.093,0.185,0.1,0.267
						c-0.001,0.002-0.001,0.004-0.002,0.004c-0.272,0.743-0.195,1.668-0.195,1.668l0.661,0.026c0.013-0.336,0.062-0.926,0.232-1.393
						c0.328-0.906,0.741-1.472,0.757-1.496l0.004-0.005c0.024-0.031,0.047-0.06,0.071-0.089l-0.196-0.142L245.453,473.188z"/>
					<path id="XMLID_457_" style="fill:#FFFFFF;" d="M257.294,471.787c-0.23,0-0.418,0.187-0.418,0.417
						c0,0.037,0.006,0.071,0.015,0.104c-0.115,0.104-0.214,0.267-0.211,0.507c0.002,0.123-0.03,0.212-0.096,0.273
						c-0.053,0.047-0.12,0.072-0.185,0.088c-0.492-0.689-1.097-1.109-1.097-1.109l-0.474,0.508c0.358,0.326,0.724,0.734,1.08,1.244
						c0.246,0.352,0.499,0.806,0.71,1.259l0.64-0.304c0,0-0.292-0.722-0.704-1.369c0.071-0.025,0.143-0.064,0.207-0.12
						c0.125-0.113,0.187-0.273,0.183-0.474c-0.001-0.13,0.042-0.218,0.093-0.276c0.071,0.054,0.16,0.089,0.257,0.089
						c0.232,0,0.419-0.187,0.419-0.419C257.712,471.974,257.525,471.787,257.294,471.787z"/>
					<path id="XMLID_456_" style="fill:#FFFFFF;" d="M255.633,477.537c-0.88,0.429-2.33,0.996-4.237,1.262
						c-0.749,0.104-1.474,0.142-2.143,0.142c-0.869,0-1.637-0.065-2.226-0.139c-0.672-0.085-1.198-0.188-1.52-0.261
						c0.078,0.245,0.171,0.487,0.284,0.724c0.002,0.006,0.005,0.013,0.008,0.017c0.014,0.027,0.027,0.056,0.041,0.084
						c0.013,0.027,0.027,0.054,0.041,0.079c0.004,0.007,0.007,0.015,0.01,0.021c0.189,0.356,0.417,0.684,0.675,0.968
						c0.9,0.984,1.816,1.139,1.825,1.141l0.015,0.002l0.013,0.005c0.009,0.003,0.821,0.265,2.057,0.265
						c1.216,0,2.409-0.245,3.545-0.729c0.842-0.431,1.639-1.085,2.033-1.668c0.305-0.452,0.526-0.934,0.656-1.434
						c0.07-0.266,0.125-0.693,0.092-1.141C256.555,477.042,256.163,477.279,255.633,477.537z"/>
					<path id="XMLID_452_" style="fill:#FFFFFF;" d="M252.322,471.655c-0.264-0.043-0.477-0.068-0.777-0.068
						c-0.279,0-0.626,0.023-1.089,0.071c-0.465,0.049-0.982,0.171-1.583,0.373c-0.842,0.282-1.604,0.724-2.204,1.28l-0.02,0.019
						c-0.089,0.081-0.275,0.254-0.488,0.525c-0.026,0.037-0.408,0.578-0.709,1.408c-0.226,0.622-0.216,1.527-0.216,1.537v0.002
						c0,0.212,0.012,0.423,0.035,0.632c0,0.005,0,0.007,0.001,0.011c0.003,0.027,0.007,0.053,0.01,0.079
						c0.018,0.144,0.043,0.291,0.074,0.438c0.438,0.112,3.048,0.721,5.966,0.314c1.829-0.255,3.218-0.795,4.061-1.204
						c0.701-0.34,1.151-0.647,1.325-0.774c-0.173-0.643-0.651-1.65-1.089-2.279C254.367,472.229,253.016,471.769,252.322,471.655z
						 M248.679,476.914c-0.971,0-1.759-0.787-1.759-1.759c0-0.972,0.788-1.76,1.759-1.76c0.973,0,1.761,0.788,1.761,1.76
						C250.439,476.127,249.652,476.914,248.679,476.914z M253.829,475.617c-0.601,0-1.089-0.489-1.089-1.09
						c0-0.602,0.487-1.089,1.089-1.089c0.601,0,1.089,0.487,1.089,1.089C254.918,475.128,254.429,475.617,253.829,475.617z"/>
				</g>
			</g>
		</g>
	</g>
</g>
</svg>
